<svg xmlns="http://www.w3.org/2000/svg" width="37" height="33" viewBox="0 0 37 33">
    <g fill="none" fill-rule="nonzero">
        <path fill="#F05831" d="M8.91 1.62H.81a.81.81 0 0 0-.81.81V24.3h9.72V2.43a.81.81 0 0 0-.81-.81z"/>
        <path fill="#444" d="M8.91 32.4H.81a.81.81 0 0 1-.81-.81v-8.1h9.72v8.1a.81.81 0 0 1-.81.81z"/>
        <path fill="#FFF" d="M5.67 16.2H4.05a.81.81 0 0 1-.81-.81V6.48a.81.81 0 0 1 .81-.81h1.62a.81.81 0 0 1 .81.81v8.91a.81.81 0 0 1-.81.81z"/>
        <path fill="#22AA8B" d="M27.899.548L20.05 2.549a.81.81 0 0 0-.585.985l5.405 21.192 9.418-2.402-5.404-21.192a.81.81 0 0 0-.985-.584z"/>
        <path fill="#444" d="M35.505 30.373l-7.849 2.002a.81.81 0 0 1-.985-.585l-2.002-7.849 9.419-2.402 2.002 7.85a.81.81 0 0 1-.585.984z"/>
        <path fill="#FFF" d="M28.362 15.476l-1.57.4a.81.81 0 0 1-.985-.584l-2.201-8.634a.81.81 0 0 1 .584-.985l1.57-.4a.81.81 0 0 1 .985.584l2.202 8.634a.81.81 0 0 1-.585.985z"/>
        <path fill="#E6E6E6" d="M18.63 1.62h-8.1a.81.81 0 0 0-.81.81V24.3h9.72V2.43a.81.81 0 0 0-.81-.81z"/>
        <path fill="#B3B3B3" d="M18.63 32.4h-8.1a.81.81 0 0 1-.81-.81v-8.1h9.72v8.1a.81.81 0 0 1-.81.81z"/>
        <path fill="#FFF" d="M15.39 16.2h-1.62a.81.81 0 0 1-.81-.81V6.48a.81.81 0 0 1 .81-.81h1.62a.81.81 0 0 1 .81.81v8.91a.81.81 0 0 1-.81.81z"/>
    </g>
</svg>
