<svg xmlns="http://www.w3.org/2000/svg" width="38" height="34" viewBox="0 0 38 34">
    <g fill="none" fill-rule="nonzero">
        <path fill="#1A9277" d="M33.21 10.53H4.05V1.62C4.05.725 4.775 0 5.67 0h5.67l3.24 3.24h16.2a2.43 2.43 0 0 1 2.43 2.43v4.86z"/>
        <path fill="#FAFAFA" d="M34.83 16.2H2.43V7.29a.81.81 0 0 1 .81-.81h30.78a.81.81 0 0 1 .81.81v8.91z"/>
        <path fill="#22AA8B" d="M32.516 33.21H4.744c-.8 0-1.48-.583-1.601-1.374l-2.99-19.44a1.62 1.62 0 0 1 1.6-1.866h33.753a1.62 1.62 0 0 1 1.602 1.866l-2.99 19.44a1.62 1.62 0 0 1-1.602 1.374z"/>
    </g>
</svg>
