<svg xmlns="http://www.w3.org/2000/svg" width="31" height="38" viewBox="0 0 31 38">
    <g fill="none" fill-rule="nonzero">
        <path fill="#FEFEFE" d="M29.16 37.26H1.62A1.62 1.62 0 0 1 0 35.64V1.62C0 .725.725 0 1.62 0h19.44l9.72 9.72v25.92a1.62 1.62 0 0 1-1.62 1.62z"/>
        <path fill="#B3B3B3" d="M21.06 0v8.1c0 .895.725 1.62 1.62 1.62h8.1L21.06 0zM23.49 27.54H7.29a.81.81 0 0 0 0 1.62h16.2a.81.81 0 0 0 0-1.62zM23.49 19.44H7.29a.81.81 0 0 0 0 1.62h16.2a.81.81 0 0 0 0-1.62zM13.77 11.34H7.29a.81.81 0 0 0 0 1.62h6.48a.81.81 0 0 0 0-1.62z"/>
    </g>
</svg>
