<svg xmlns="http://www.w3.org/2000/svg" xmlns:xlink="http://www.w3.org/1999/xlink" width="107" height="43" viewBox="0 0 107 43">
    <defs>
        <path id="a" d="M0 .005h36.194v42.136H0z"/>
    </defs>
    <g fill="none" fill-rule="evenodd">
        <path fill="#AED3A0" d="M12.866 3.51c1.045-1.187 2.567-1.95 4.15-2.03 2.265-.161 4.568 1.038 5.74 2.982 1.768 2.851 1.289 6.88-1.13 9.213-1.053 1.037-2.482 1.723-3.968 1.778-.18.026-.455-.055-.515.183-.706 1.493-1.79 2.813-3.154 3.748-1.31.91-2.905 1.407-4.502 1.316-.478.431-.964.874-1.57 1.118-1.254.557-2.772.567-3.997-.071-1.482-1.238-2.41-3.112-2.452-5.047-.069-2.728 1.346-5.355 3.427-7.062.207-.719.425-1.447.819-2.091C7.14 5.05 9.974 3.385 12.866 3.51"/>
        <g>
            <mask id="b" fill="#fff">
                <use xlink:href="#a"/>
            </mask>
            <path fill="#14394F" d="M12.876 3.523C9.986 3.4 7.152 5.06 5.726 7.551c-.393.643-.61 1.369-.818 2.086-2.08 1.703-3.494 4.323-3.425 7.045.042 1.93.97 3.8 2.45 5.035.09 2.951 1.79 5.732 4.237 7.341 1.744 1.004 4.048.86 5.69-.284.126-.121.3-.125.46-.09 2.148.339 4.404-.288 6.114-1.616 1.237-.937 2.171-2.22 2.82-3.619 1.696-.064 3.319-.86 4.493-2.067 2.184-2.213 2.762-5.875 1.219-8.598.214-.273.468-.514.662-.803.854-1.193 1.105-2.78.697-4.184-.36-1.256-1.239-2.37-2.405-2.968-.987-.436-2.08-.612-3.155-.603-.679-.011-1.335.185-2.003.247-1.172-1.939-3.474-3.135-5.738-2.974-1.582.08-3.104.84-4.148 2.024M14.619.54c1.345-.47 2.822-.719 4.228-.37.93.183 1.848.482 2.642 1.006.702.47 1.412.972 1.91 1.665.496.035.978-.14 1.476-.116 1.352.049 2.711.336 3.954.88 1.509.723 2.832 1.856 3.692 3.298.628.972.879 2.118 1.083 3.24.826.873 1.594 1.847 2.015 2.99.46 1.312.714 2.725.495 4.112-.193.93-.39 1.875-.86 2.711a8.57 8.57 0 0 1-1.111 1.584c.43 1.59.168 3.274-.401 4.793-.809 1.93-2.436 3.51-4.407 4.229-1.153.352-2.378.63-3.585.397-1.052 1.321-2.554 2.27-4.18 2.721-.452 1.188-.619 2.466-.568 3.729.11 1.53.473 3.16 1.574 4.3-.54.383-1.259.303-1.885.416-1.477-.01-3.015.153-4.429-.363.477-.558.889-1.179 1.115-1.884a9.282 9.282 0 0 0-.058-6.095c-.995-.231-1.972-.583-2.81-1.173-.376-.336-.91-.189-1.363-.254-1.2-.164-2.393-.426-3.526-.856-2.18-.877-4.124-2.388-5.41-4.36-.982-1.395-1.478-3.064-1.715-4.735C1.43 21.34.592 20.004.287 18.519a7.845 7.845 0 0 1-.221-3.135c.215-1.202.517-2.404 1.107-3.482.614-1.123 1.396-2.162 2.347-3.02.203-.17.2-.449.287-.677.397-1.197 1.131-2.255 1.966-3.188 1.144-1.155 2.548-2.094 4.118-2.55.754-.184 1.51-.401 2.292-.41.76-.578 1.52-1.194 2.436-1.518" mask="url(#b)"/>
        </g>
        <path fill="#1DAE8D" d="M22.769 4.4c.67-.062 1.327-.258 2.007-.247 1.077-.008 2.172.168 3.16.605 1.168.598 2.048 1.713 2.41 2.97.409 1.404.156 2.993-.7 4.187-.193.291-.447.532-.663.805 1.546 2.725.967 6.392-1.22 8.606-1.176 1.208-2.802 2.005-4.5 2.069-.65 1.4-1.586 2.685-2.825 3.623-1.714 1.329-3.973 1.957-6.125 1.618-.161-.035-.334-.033-.46.089-1.646 1.146-3.954 1.29-5.7.285-2.451-1.612-4.155-4.395-4.244-7.348 1.227.636 2.747.627 4.002.07.608-.244 1.094-.685 1.572-1.116 1.598.091 3.196-.407 4.507-1.314 1.366-.935 2.452-2.252 3.159-3.744.059-.237.336-.156.516-.181 1.487-.056 2.918-.74 3.971-1.777 2.423-2.33 2.902-6.352 1.133-9.2"/>
        <g fill="#14394F">
            <path d="M58.156 12.987c-.702 1.308-.444 3.274.934 4.036.793.398 1.733.229 2.552.012-.018-1.574.001-3.15-.01-4.724l.446-.091c-.095-.148-.29-.15-.44-.196-.54-.112-1.088-.224-1.642-.195-.77 0-1.48.492-1.84 1.158m3.456-6.501a4.5 4.5 0 0 1 1.731 0c-.048 2.589-.013 5.177-.024 7.766.005 1.423-.015 2.846.023 4.269-1.152.039-2.3.134-3.452.204-.952.029-1.956-.233-2.65-.916-.952-.905-1.27-2.288-1.219-3.56.051-1.093.407-2.22 1.217-2.988.822-.772 2.025-1.022 3.118-.853.427.04.855.074 1.282.126-.008-1.35.006-2.7-.026-4.048M89.616 6.548a2.896 2.896 0 0 1 1.72-.001 264.661 264.661 0 0 0-.014 4.63c.521-.257.98-.63 1.515-.862.003.512-.002 1.024.002 1.537-.626.357-1.31.623-1.898 1.037.127.04.254.083.381.129-.004 1.865-.014 3.732.02 5.598-.4.055-.832.17-1.212-.018-.423-.253-.46-.79-.493-1.231-.01-1.281.007-2.561-.007-3.841-.438.19-.834.467-1.28.632-.007-.39-.006-.78.002-1.17.426-.27.876-.506 1.288-.8-.018-1.88.012-3.76-.024-5.64M81.219 15.68c-.213.309-.338.736-.123 1.079.245.366.72.462 1.132.49a13.98 13.98 0 0 0 2.88-.252c.013-.518-.005-1.037.014-1.553.184-.06.367-.134.518-.26-1.02-.026-2.04.001-3.061-.013-.491-.016-1.04.11-1.36.51m-1.407-4.852c1.672-.429 3.509-.747 5.17-.118 1.105.413 1.757 1.587 1.755 2.732.005 1.345-.002 2.689.002 4.032a7.75 7.75 0 0 0 .088 1.041c-1.03-.015-2.054.13-3.085.12-1.114.07-2.296.237-3.35-.232-.754-.327-1.196-1.159-1.151-1.964-.033-.625.116-1.295.552-1.764.526-.575 1.345-.79 2.102-.774 1.07.017 2.14-.016 3.209.034.02-.585-.13-1.24-.608-1.618-.544-.408-1.255-.5-1.916-.49-.804 0-1.54.359-2.29.6-.17-.53-.307-1.069-.478-1.599M65.804 10.746c.196-.263.577-.247.875-.274 2.06.006 4.12-.013 6.18.01v.597c-1.385 1.806-2.757 3.622-4.14 5.43-.168.243-.49.307-.657.55 1.608-.09 3.22-.01 4.83-.047.1.464.222 1.005-.05 1.433-.214.15-.491.157-.742.165-2.167.004-4.336-.017-6.503.02.013-.21-.056-.453.084-.634 1.268-1.69 2.537-3.38 3.8-5.072.21-.357.543-.609.794-.929-1.492.15-2.997.016-4.495.082-.103-.432-.165-.915.024-1.33M75.208 10.554a3.332 3.332 0 0 1 1.731-.013c-.039 2.117-.023 4.235-.018 6.352-.017.531.166 1.046.45 1.49-.436.412-1.157.45-1.609.048-.41-.343-.507-.903-.53-1.408-.01-2.156.021-4.313-.024-6.469M51.72 26.382c-.034 1.375.014 2.75-.022 4.124l-.245.085c.636 1.096 2.325 1.354 3.255.486 1.264-1.156 1.203-3.508-.195-4.536-.818-.566-1.887-.365-2.792-.16M50 24.885c1.456.023 2.903-.242 4.36-.127.875.137 1.708.614 2.209 1.355.7.989.875 2.257.753 3.439-.176 1.187-.842 2.325-1.892 2.938-1.107.688-2.512.694-3.72.287.024 1.378-.066 2.76.079 4.134-.59.08-1.188.087-1.776-.003.106-1.055.064-2.115.072-3.172V27.39c-.007-.836.034-1.676-.085-2.507M67.638 31.135c.333.449.958.448 1.465.468.845-.067 1.714-.055 2.536-.28-.008-.475-.02-.952-.002-1.428.025-.25.418-.112.45-.366-1.148.026-2.297-.028-3.442.029-.739.012-1.44.89-1.007 1.577m-1.307-5.932c1.255-.434 2.603-.523 3.923-.456.833.1 1.702.378 2.271 1.03.403.442.607 1.024.704 1.605.105 1.834-.08 3.682.112 5.51-1.145.013-2.288.027-3.426.136-1.04-.03-2.16.183-3.117-.334-.724-.354-1.088-1.193-1.039-1.97-.04-.774.26-1.631.953-2.044.535-.346 1.186-.423 1.81-.464 1.033.013 2.068.089 3.103.072.01-.564-.112-1.186-.556-1.572-.503-.453-1.214-.513-1.858-.543-.837 0-1.635.3-2.39.633-.18-.53-.302-1.076-.49-1.603M75.321 24.871a3.727 3.727 0 0 1 1.735 0 111.766 111.766 0 0 0-.007 4.704c.036.723.271 1.612 1.044 1.863a4.736 4.736 0 0 0 2.082.084c.015-2.217.027-4.434-.015-6.651a3.705 3.705 0 0 1 1.736 0c-.049 2.097-.015 4.195-.027 6.294-.148.019-.296.04-.442.063.492.452 1.218.388 1.835.34.518-.02 1.085-.19 1.375-.652.355-.568.383-1.264.384-1.914.01-1.377.011-2.754-.02-4.131a3.713 3.713 0 0 1 1.734 0c-.039 1.492-.023 2.986-.024 4.478-.03.915-.228 1.876-.839 2.589-.713.843-1.873 1.175-2.946 1.101-.814.07-1.609-.352-2.414-.145a8.152 8.152 0 0 1-2.199.127c-.88-.115-1.76-.528-2.275-1.273-.506-.69-.66-1.562-.693-2.398 0-1.493.015-2.987-.024-4.479M89.157 24.873c.843 0 1.687-.016 2.526-.123.803.007 1.63-.113 2.413.13.75.203 1.449.656 1.873 1.317.392.586.535 1.304.538 2-.006 1.57-.007 3.14.015 4.708a3.707 3.707 0 0 1-1.724-.003c.027-1.49.03-2.983.015-4.475.006-.725-.293-1.488-.921-1.889-.731-.456-1.635-.393-2.451-.283-.338.07-.71.081-.99.303l.404.045c.015 2.1-.02 4.2.028 6.3a3.722 3.722 0 0 1-1.734 0c.045-2.677.03-5.354.008-8.03M98.239 24.873a3.687 3.687 0 0 1 1.738-.003c.087 1.001.337 1.974.526 2.96.182.828.326 1.677.674 2.46.172.386.442.791.88.895.642.078 1.285-.024 1.916-.139a18.588 18.588 0 0 1-.306-.224c.219-1.989.775-3.939.878-5.943a3.784 3.784 0 0 1 1.786-.008c-.363 2.258-.772 4.511-1.142 6.768-.261 1.355-.352 2.8-1.09 4.004a2.685 2.685 0 0 1-1.912 1.293 10.072 10.072 0 0 1-3.502-.35c.079-.55.309-1.064.419-1.608.914.303 1.917.786 2.88.386.99-.512 1.173-1.744 1.348-2.734-.898.174-1.917.18-2.658-.432-1.003-.808-1.397-2.116-1.643-3.329-.26-1.333-.525-2.665-.792-3.996M59.656 24.993c.725-.025 1.454.006 2.173-.103.808-.069 1.621-.033 2.433-.042l.001 2.074c-.97-.636-2.206-.477-3.266-.188.12.08.24.16.363.24.007 1.976-.017 3.952.022 5.928a3.697 3.697 0 0 1-1.728 0c.035-2.635.031-5.273.002-7.909M75.34 6.903c.484-.073.977-.052 1.462-.001.18.5.199 1.073.006 1.574a2.335 2.335 0 0 1-1.552-.015 4.862 4.862 0 0 1-.02-1.43l.105-.128"/>
        </g>
    </g>
</svg>
