<svg xmlns="http://www.w3.org/2000/svg" xmlns:xlink="http://www.w3.org/1999/xlink" width="37" height="43" viewBox="0 0 37 43">
    <defs>
        <path id="a" d="M0 .005h36.194v42.136H0z"/>
    </defs>
    <g fill="none" fill-rule="evenodd">
        <path fill="#AED3A0" d="M12.866 3.51c1.045-1.187 2.567-1.95 4.15-2.03 2.265-.161 4.568 1.038 5.74 2.982 1.768 2.851 1.289 6.88-1.13 9.213-1.053 1.037-2.482 1.723-3.968 1.778-.18.026-.455-.055-.515.183-.706 1.493-1.79 2.813-3.154 3.748-1.31.91-2.905 1.407-4.502 1.316-.478.431-.964.874-1.57 1.118-1.254.557-2.772.567-3.997-.071-1.482-1.238-2.41-3.112-2.452-5.047-.069-2.728 1.346-5.355 3.427-7.062.207-.719.425-1.447.819-2.091C7.14 5.05 9.974 3.385 12.866 3.51"/>
        <g>
            <mask id="b" fill="#fff">
                <use xlink:href="#a"/>
            </mask>
            <path fill="#14394F" d="M12.876 3.523C9.986 3.4 7.152 5.06 5.726 7.551c-.393.643-.61 1.369-.818 2.086-2.08 1.703-3.494 4.323-3.425 7.045.042 1.93.97 3.8 2.45 5.035.09 2.951 1.79 5.732 4.237 7.341 1.744 1.004 4.048.86 5.69-.284.126-.121.3-.125.46-.09 2.148.339 4.404-.288 6.114-1.616 1.237-.937 2.171-2.22 2.82-3.619 1.696-.064 3.319-.86 4.493-2.067 2.184-2.213 2.762-5.875 1.219-8.598.214-.273.468-.514.662-.803.854-1.193 1.105-2.78.697-4.184-.36-1.256-1.239-2.37-2.405-2.968-.987-.436-2.08-.612-3.155-.603-.679-.011-1.335.185-2.003.247-1.172-1.939-3.474-3.135-5.738-2.974-1.582.08-3.104.84-4.148 2.024M14.619.54c1.345-.47 2.822-.719 4.228-.37.93.183 1.848.482 2.642 1.006.702.47 1.412.972 1.91 1.665.496.035.978-.14 1.476-.116 1.352.049 2.711.336 3.954.88 1.509.723 2.832 1.856 3.692 3.298.628.972.879 2.118 1.083 3.24.826.873 1.594 1.847 2.015 2.99.46 1.312.714 2.725.495 4.112-.193.93-.39 1.875-.86 2.711a8.57 8.57 0 0 1-1.111 1.584c.43 1.59.168 3.274-.401 4.793-.809 1.93-2.436 3.51-4.407 4.229-1.153.352-2.378.63-3.585.397-1.052 1.321-2.554 2.27-4.18 2.721-.452 1.188-.619 2.466-.568 3.729.11 1.53.473 3.16 1.574 4.3-.54.383-1.259.303-1.885.416-1.477-.01-3.015.153-4.429-.363.477-.558.889-1.179 1.115-1.884a9.282 9.282 0 0 0-.058-6.095c-.995-.231-1.972-.583-2.81-1.173-.376-.336-.91-.189-1.363-.254-1.2-.164-2.393-.426-3.526-.856-2.18-.877-4.124-2.388-5.41-4.36-.982-1.395-1.478-3.064-1.715-4.735C1.43 21.34.592 20.004.287 18.519a7.845 7.845 0 0 1-.221-3.135c.215-1.202.517-2.404 1.107-3.482.614-1.123 1.396-2.162 2.347-3.02.203-.17.2-.449.287-.677.397-1.197 1.131-2.255 1.966-3.188 1.144-1.155 2.548-2.094 4.118-2.55.754-.184 1.51-.401 2.292-.41.76-.578 1.52-1.194 2.436-1.518" mask="url(#b)"/>
        </g>
        <path fill="#1DAE8D" d="M22.769 4.4c.67-.062 1.327-.258 2.007-.247 1.077-.008 2.172.168 3.16.605 1.168.598 2.048 1.713 2.41 2.97.409 1.404.156 2.993-.7 4.187-.193.291-.447.532-.663.805 1.546 2.725.967 6.392-1.22 8.606-1.176 1.208-2.802 2.005-4.5 2.069-.65 1.4-1.586 2.685-2.825 3.623-1.714 1.329-3.973 1.957-6.125 1.618-.161-.035-.334-.033-.46.089-1.646 1.146-3.954 1.29-5.7.285-2.451-1.612-4.155-4.395-4.244-7.348 1.227.636 2.747.627 4.002.07.608-.244 1.094-.685 1.572-1.116 1.598.091 3.196-.407 4.507-1.314 1.366-.935 2.452-2.252 3.159-3.744.059-.237.336-.156.516-.181 1.487-.056 2.918-.74 3.971-1.777 2.423-2.33 2.902-6.352 1.133-9.2"/>
    </g>
</svg>
